<svg width="82" height="83" viewBox="0 0 82 83" fill="none" xmlns="http://www.w3.org/2000/svg">
<g filter="url(#filter0_d_411_760)">
<circle cx="40" cy="40.0655" r="19" fill="white"/>
</g>
<path d="M28.7017 41.1906L28.6215 41.1502C28.4411 41.0492 28.3007 40.8978 28.2005 40.706C28.0601 40.4435 28 40.2012 28 39.9488L28.02 39.8175C28.02 39.6156 28.0702 39.4339 28.1604 39.2623L28.2406 39.1108C28.2807 39.0301 28.3408 38.9594 28.391 38.8887C28.4511 38.8181 28.4611 38.7272 28.4411 38.6464L28.391 38.4849C28.3308 38.283 28.2907 38.0811 28.2907 37.8792L28.2606 37.758C28.2606 37.5359 28.3208 37.3138 28.4611 37.1523L28.5614 37.021C28.6316 36.9201 28.7418 36.8595 28.8621 36.8191C28.9624 36.7888 29.0326 36.6879 29.0426 36.5667L29.0626 36.2235C29.0626 35.9509 29.193 35.6985 29.3935 35.5168L29.6341 35.3351C29.6842 35.2846 29.7343 35.2341 29.7744 35.1533C29.8245 35.0928 29.8346 35.012 29.8245 34.9514C29.8045 34.8505 29.8245 34.8202 29.8747 34.8101C30.0351 34.8706 30.1353 34.8505 30.2055 34.7697L30.3358 34.5981L30.6967 34.1942C30.7969 34.0933 30.837 33.9116 30.7769 33.7702L30.6566 33.5077C30.6365 33.4472 30.6566 33.3765 30.7067 33.3563C30.837 33.3563 30.9273 33.4068 30.9674 33.4875L31.0075 33.5582C31.0676 33.6794 31.208 33.7399 31.3082 33.6895C31.5288 33.6087 31.7092 33.5885 31.8796 33.5885H32.2004C32.421 33.5885 32.6014 33.4371 32.6415 33.2049C32.6816 32.9222 32.7819 32.7001 32.9222 32.5486C33.0726 32.377 33.243 32.2458 33.4435 32.1448C33.7042 32.0035 33.8646 31.8016 33.9147 31.5391C33.9849 31.216 34.1553 30.9838 34.3859 30.8324L35.1478 30.3983L35.3683 30.267C35.4986 30.1862 35.6189 30.0853 35.7192 29.9641L35.9197 29.7218C36.0199 29.6209 36.1202 29.5502 36.2405 29.5199C36.3407 29.4896 36.4811 29.4695 36.6014 29.4795L37.0024 29.5098C37.2029 29.5098 37.3633 29.5603 37.5237 29.631L37.6239 29.6815C37.7242 29.7218 37.8244 29.7017 37.8745 29.631L37.9648 29.5805L38.3958 29.1262C38.4961 29.0252 38.6164 28.9849 38.7467 29.005C38.877 29.0252 39.0073 29.0757 39.1276 29.1363C39.3081 29.2372 39.4585 29.2776 39.6289 29.2776H39.7291C39.9497 29.2776 40.1702 29.3079 40.3908 29.3584L40.5412 29.3988C40.6915 29.4392 40.8419 29.3786 40.9421 29.2574C40.9722 29.207 41.0424 29.1969 41.0825 29.2372C41.1126 29.2574 41.1226 29.2776 41.1326 29.3079C41.1527 29.5098 41.273 29.6613 41.4334 29.7117L41.5938 29.7622C41.7642 29.8127 41.9146 29.9238 42.0148 30.0651C42.1151 30.2165 42.2354 30.368 42.3757 30.4689L42.476 30.5699C42.5762 30.6708 42.7166 30.7112 42.8569 30.7011H43.4484C43.689 30.7011 43.9195 30.7415 44.1501 30.8425C44.3707 30.9434 44.6012 30.9636 44.8118 30.8828C45.0323 30.8122 45.2629 30.7819 45.4935 30.8122L45.9245 30.8828C46.125 30.903 46.3255 31.004 46.4458 31.1554L46.4959 31.2059C46.5962 31.3069 46.6964 31.4381 46.7967 31.5795C46.8568 31.7107 46.9972 31.7814 47.1375 31.7814H47.7591C47.9095 31.7814 48.0598 31.8117 48.1801 31.8823C48.3105 31.9833 48.4207 32.0842 48.521 32.1852L48.6212 32.3164C48.7415 32.4578 48.8017 32.6496 48.7916 32.8515C48.7916 33.013 48.9119 33.1544 49.0723 33.1544L49.2728 33.1746C49.4132 33.1746 49.5335 33.2755 49.6037 33.4068L49.7039 33.6087L49.9646 34.1942C50.0047 34.2952 50.0147 34.3962 50.0047 34.4769C50.0047 34.5779 50.0347 34.6586 50.1049 34.699L50.2052 34.7697C50.3355 34.8706 50.4057 35.0221 50.3856 35.1937L50.3154 35.6682L50.2954 35.8701C50.2753 35.9711 50.3255 36.1023 50.4157 36.173C50.5661 36.274 50.6362 36.4052 50.6463 36.5566V36.7585C50.6463 36.8595 50.6262 36.9806 50.546 37.0614C50.4859 37.1422 50.4458 37.2431 50.4458 37.3643L50.4758 37.5965C50.4758 37.758 50.5761 37.8994 50.6763 38.0003C50.8167 38.1013 50.8969 38.2628 50.9169 38.4243C50.957 38.6767 50.967 38.8786 50.967 39.0806V39.3128C50.967 39.3935 50.9671 39.4743 50.9971 39.5551C51.0172 39.6257 51.0673 39.6964 51.1274 39.7368L51.3279 39.8882C51.5284 40.0195 51.6688 40.1911 51.749 40.4233C51.8492 40.6454 51.8793 40.8776 51.8793 41.1098V41.1906C51.8793 41.3723 51.8593 41.5641 51.7991 41.7357C51.749 41.9174 51.759 42.0891 51.8292 42.2405C51.9094 42.3818 51.9595 42.5434 51.9796 42.715C52.0197 42.9169 51.9996 43.1188 51.9294 43.2804L51.9094 43.351C51.8593 43.4722 51.7791 43.5832 51.6788 43.6741C51.5786 43.7751 51.4783 43.8356 51.4182 43.9063C51.358 43.9669 51.3179 44.0678 51.348 44.1587L51.3781 44.3C51.4282 44.5019 51.4282 44.7039 51.3781 44.8856V44.9663C51.338 45.1178 51.2778 45.249 51.2177 45.3702C51.1475 45.5014 51.0472 45.6024 50.9169 45.673L50.7666 45.774C50.6964 45.8144 50.6463 45.9052 50.6463 45.9961C50.6463 46.0971 50.6062 46.198 50.546 46.2586L50.3956 46.4605C50.2954 46.5918 50.1651 46.7028 50.0247 46.7634C49.8844 46.8643 49.7641 46.9653 49.6738 47.0663C49.5736 47.1874 49.4934 47.3287 49.4533 47.4701C49.4132 47.6518 49.2728 47.7528 49.1225 47.7528H48.5811C48.4408 47.7528 48.3105 47.8537 48.2503 47.9749C48.1801 48.1364 48.11 48.2474 48.0197 48.3484C47.9195 48.4494 47.8593 48.5705 47.8192 48.7119C47.7992 48.833 47.6989 48.9138 47.5987 48.8734C47.4684 48.8128 47.338 48.8734 47.2779 48.9743C47.1576 49.1763 47.0373 49.3277 46.907 49.4589L46.8368 49.5195C46.7065 49.6205 46.536 49.7012 46.3857 49.7012C46.2052 49.7012 46.115 49.782 46.0849 49.9031C46.0548 50.0041 46.0348 50.1353 46.0248 50.2464C46.0047 50.3675 45.9646 50.4786 45.9245 50.5796L45.8744 50.6401C45.7742 50.7916 45.694 50.943 45.5937 51.0742L45.5536 51.1348C45.4233 51.3064 45.2529 51.4377 45.0524 51.4882C44.8118 51.5689 44.6012 51.5891 44.3907 51.5891H44.2504C44.1501 51.5891 44.0499 51.6497 43.9797 51.7507L43.9195 51.8516L43.8594 51.9728L43.7291 52.1949C43.6288 52.3766 43.4784 52.4977 43.278 52.5583C43.0775 52.6088 42.8469 52.629 42.6364 52.6189L42.476 52.5987C42.3356 52.5987 42.2053 52.5583 42.075 52.4977C41.9747 52.4574 41.8344 52.4977 41.7742 52.5987C41.674 52.74 41.5537 52.8208 41.4233 52.8612L41.1226 52.9621C40.9221 53.0126 40.7016 53.0126 40.491 52.9621L40.3306 52.9117C40.2304 52.9117 40.1301 52.8612 40.0499 52.8107C39.9497 52.7602 39.8494 52.74 39.7492 52.7501L39.6189 52.7703C39.4184 52.7905 39.2379 52.7703 39.0575 52.7198L38.7868 52.6593C38.6665 52.6189 38.5562 52.5381 38.486 52.4271C38.4359 52.3261 38.3256 52.2453 38.1853 52.2252H37.8645C37.664 52.1949 37.4836 52.1242 37.3633 51.9728L36.9623 51.5891L36.8219 51.468L36.6014 51.3064L36.471 51.2055C36.3207 51.1045 36.1402 51.0238 35.9497 51.0036L35.3483 50.9026C35.2881 50.9026 35.248 50.8824 35.1879 50.8723L34.9573 50.8219C34.857 50.8017 34.7568 50.7209 34.6866 50.6199C34.6265 50.519 34.5162 50.4786 34.4159 50.519C34.2154 50.5997 34.055 50.6199 33.8946 50.6502H33.7543C33.4936 50.6704 33.253 50.63 33.0125 50.519C32.7719 50.418 32.6115 50.2666 32.4611 50.0748C32.3408 49.9031 32.1603 49.7719 31.9398 49.7315L31.6591 49.6709C31.4586 49.6306 31.2581 49.5498 31.0776 49.4286C30.8771 49.2873 30.7769 49.1561 30.6967 48.9945C30.6165 48.8431 30.5664 48.6715 30.5563 48.4897V48.409C30.5363 48.2071 30.396 48.0253 30.2055 47.9749C29.9749 47.9042 29.8045 47.8032 29.6541 47.672C29.5138 47.5408 29.4336 47.3489 29.4336 47.147L29.4536 46.7028C29.4536 46.5312 29.4035 46.3797 29.2832 46.2687C29.1629 46.1475 29.0827 45.9961 29.0827 45.8346L29.0526 45.4711C29.0326 45.2086 28.9824 44.9462 28.9223 44.6837C28.8621 44.4515 28.9524 44.2193 29.1428 44.1082L29.213 44.0577C29.3133 43.9871 29.3534 43.8558 29.2932 43.7347L29.213 43.6337C29.1128 43.5328 29.0125 43.4621 28.9123 43.4318C28.8321 43.4116 28.812 43.3308 28.812 43.2804L28.9123 43.1592C28.9724 43.0885 28.9624 42.9775 28.9123 42.9169C28.8321 42.8362 28.792 42.7352 28.7819 42.6342L28.7619 41.9275C28.7619 41.7862 28.7819 41.6449 28.822 41.5035C28.8621 41.3824 28.822 41.241 28.7017 41.1805V41.1906ZM38.6264 39.8579C38.6966 39.7873 38.6865 39.656 38.6264 39.6055C38.5261 39.5248 38.456 39.4339 38.3958 39.3329L38.2956 39.1714C38.2254 39.0402 38.1352 38.9291 38.0349 38.8282L38.0149 38.808C37.9146 38.7272 37.8445 38.6262 37.7843 38.5051C37.7342 38.4041 37.7342 38.3032 37.7843 38.2022L37.8445 38.1013C37.9046 38.0003 37.9447 37.859 37.9447 37.7378V37.6974C37.9447 37.5965 37.9046 37.4955 37.8445 37.3946C37.8044 37.3138 37.7643 37.2129 37.7442 37.1119V37.0513C37.7141 36.9302 37.7442 36.7989 37.8244 36.698C37.9046 36.5667 37.9648 36.4456 37.9948 36.2941V36.274C38.0349 36.173 38.0149 36.0417 37.9547 35.9408C37.8946 35.8398 37.8745 35.7389 37.9146 35.6177L37.9848 35.4158C38.045 35.2341 38.1352 35.0726 38.2555 34.9312L38.3958 34.7798L38.4961 34.6586L38.5562 34.5981C38.6164 34.5375 38.6264 34.4365 38.5763 34.3558C38.5261 34.2548 38.4961 34.1539 38.5161 34.0529L38.5362 33.9116C38.5662 33.7096 38.6364 33.5077 38.7667 33.3462L38.8068 33.3058C38.9572 33.1039 39.1477 32.9727 39.3682 32.902L39.6389 32.801C39.7592 32.7606 39.8394 32.6294 39.8394 32.4982C39.8394 32.3366 39.8895 32.1953 39.9798 32.064L40.0299 32.0136C40.1301 31.8419 40.2504 31.6703 40.3306 31.4886L40.4008 31.3573C40.4209 31.3271 40.4309 31.2867 40.4309 31.2564C40.4309 31.0848 40.3306 30.9333 40.1702 30.9232L39.7291 30.8929C39.4785 30.8728 39.2279 30.8929 38.9873 30.8929L38.1352 30.9939C38.0049 30.9939 37.9046 31.0949 37.8946 31.2362C37.8946 31.3775 37.7943 31.4987 37.674 31.5391L37.3131 31.64L37.2129 31.6703L36.9121 31.7713C36.6916 31.8419 36.5111 32.0035 36.4109 32.2256L36.3307 32.3568C36.2304 32.5789 36.06 32.7606 35.8495 32.8919C35.649 33.0231 35.5488 33.2351 35.5287 33.4774V33.5784C35.5087 33.7803 35.4485 33.9822 35.3282 34.1236L35.2781 34.2043C35.1979 34.3053 35.1778 34.4365 35.228 34.5476C35.2781 34.6687 35.3082 34.8 35.2981 34.9312V35.4663C35.2981 35.6076 35.1979 35.7288 35.0976 35.7692C34.9573 35.8196 34.8671 35.9307 34.827 36.072L34.7768 36.274C34.7367 36.4759 34.8069 36.6778 34.9773 36.7989C35.1377 36.9201 35.238 37.1018 35.2781 37.3239V37.5056C35.3082 37.7075 35.4184 37.9095 35.5989 38.0104C35.7793 38.1316 35.9197 38.3133 35.9999 38.5152L36.05 38.6767C36.1302 38.8988 36.3106 39.0301 36.5111 39.0503H36.5713C36.7517 39.0503 36.9121 39.1512 37.0124 39.3128C37.1126 39.4743 37.273 39.5853 37.4535 39.6156L37.7342 39.6964C37.9046 39.7469 38.065 39.8377 38.1953 39.969L38.2154 39.9892C38.3156 40.0699 38.476 40.0598 38.5662 39.9488L38.6364 39.868L38.6264 39.8579ZM39.7692 38.9291C39.8695 38.9897 39.9697 38.9594 40.0098 38.8685L40.0399 38.8181C40.1101 38.6767 40.2003 38.5354 40.3006 38.4142L40.5011 38.1114C40.5311 38.1114 40.5412 38.0912 40.5512 38.071L40.7918 37.7479C40.892 37.647 41.0123 37.5763 41.1527 37.5763C41.283 37.5763 41.3933 37.5056 41.4534 37.3744C41.4935 37.233 41.5537 37.1018 41.674 36.9907L41.7241 36.9302C41.8243 36.8292 41.9246 36.7787 42.0248 36.7283C42.1552 36.7081 42.2755 36.6879 42.3958 36.6879H42.6965C42.8168 36.6879 42.9171 36.6374 42.9772 36.5364C43.0374 36.4355 43.1276 36.3648 43.2278 36.3143L43.3281 36.274C43.4885 36.2033 43.6689 36.1528 43.8494 36.1326L44.0499 36.1124C44.1702 36.1124 44.3005 36.1124 44.4208 36.1831C44.521 36.2538 44.6514 36.2437 44.7516 36.1629L44.8218 36.1225C44.9722 36.0216 45.1426 35.9408 45.323 35.9206H45.3431C45.5436 35.8802 45.724 35.8802 45.9245 35.8903H46.0248C46.2253 35.9206 46.3957 35.9913 46.526 36.1427L46.5561 36.1831C46.6563 36.284 46.8167 36.3648 46.9571 36.3648H47.1275C47.1776 36.3648 47.2278 36.3446 47.2578 36.2941C47.2879 36.2639 47.338 36.2336 47.3882 36.2336H47.4884C47.6288 36.2336 47.7591 36.274 47.8894 36.3143L48.0598 36.385C48.2202 36.4355 48.3906 36.486 48.5611 36.5062H48.6814C48.7616 36.5062 48.8117 36.4557 48.8117 36.385C48.8117 36.284 48.7916 36.1831 48.7415 36.1023L48.6713 35.9408C48.5911 35.8095 48.531 35.6682 48.4708 35.537L48.4508 35.4865C48.4007 35.3855 48.4007 35.2846 48.4508 35.1836V35.1331C48.4708 35.0524 48.4307 34.9615 48.3506 34.9312H48.2704C48.11 34.8807 47.9696 34.7899 47.8694 34.6586L47.7691 34.5577C47.6689 34.4567 47.6087 34.3053 47.5686 34.1539C47.5185 34.0226 47.4082 33.9217 47.2679 33.9217H46.8468C46.6964 33.9015 46.5661 33.8207 46.4759 33.6995L46.4358 33.6491C46.3656 33.5481 46.3055 33.427 46.2654 33.3058C46.2152 33.2049 46.105 33.1443 46.0047 33.1746L45.8844 33.215C45.6839 33.2856 45.4834 33.3159 45.2829 33.2957L45.1225 33.2755C44.9521 33.2755 44.7917 33.2049 44.6614 33.1039L44.5611 33.0332C44.4809 32.9727 44.4007 32.9323 44.3105 32.8919C44.2103 32.8515 44.1301 32.8717 44.0699 32.9424L44.0198 33.0029C43.9195 33.1039 43.7792 33.1847 43.6388 33.2049L43.0975 33.2351C42.9973 33.2351 42.897 33.2856 42.8268 33.3563C42.7466 33.427 42.6564 33.4774 42.5562 33.4976H42.5361C42.4359 33.4976 42.3356 33.5683 42.2354 33.639V33.6592C42.1351 33.7601 42.0048 33.8106 41.8745 33.8106L41.8344 33.8308C41.7141 33.8308 41.5938 33.8308 41.4735 33.8611H41.3532C41.1827 33.8914 41.0524 34.0327 41.0123 34.2144L40.9722 34.4466C40.9421 34.6082 40.872 34.7495 40.7717 34.8807C40.6715 35.0019 40.5512 35.0827 40.4008 35.0827H40.2504H40.2304C40.1301 35.1028 40.0299 35.2139 40.0499 35.3351C40.07 35.5067 40.0499 35.6581 40.0199 35.8095L39.9798 35.9812C39.9397 36.1326 39.8394 36.2538 39.7091 36.3042L39.6489 36.3345H39.6289C39.5687 36.3749 39.5286 36.4658 39.5788 36.5364C39.6389 36.6374 39.659 36.7384 39.6489 36.8393L39.6189 37.1624C39.6189 37.2835 39.5687 37.3946 39.5186 37.4955C39.4585 37.5965 39.4585 37.6974 39.4986 37.7984L39.5988 38.0205C39.6489 38.1215 39.659 38.2224 39.6289 38.3436C39.5988 38.4445 39.5788 38.5455 39.5888 38.6464C39.5888 38.7474 39.6489 38.8484 39.7291 38.8887L39.7492 38.9089L39.7692 38.9291ZM47.6889 46.2283C47.7892 46.3293 47.9395 46.3696 48.0598 46.2889L48.2603 46.1576C48.3606 46.087 48.4408 45.986 48.4809 45.8548V45.8346L48.5811 45.5317L48.6413 45.4307L48.6814 45.3298L48.7215 45.2591C48.7616 45.1784 48.8217 45.1178 48.922 45.0875L48.9621 45.0673C49.0423 45.0471 49.0924 44.9663 49.0924 44.8856C49.0924 44.7846 49.1425 44.7039 49.1926 44.6332L49.2728 44.5625L49.4733 44.3V44.2798C49.5335 44.1991 49.5736 44.1082 49.5936 44.0073C49.6137 43.9063 49.5936 43.8053 49.5535 43.7044L49.5335 43.664C49.4934 43.563 49.4733 43.4924 49.4633 43.4015L49.4332 43.1188L49.4032 42.816C49.4032 42.715 49.4433 42.614 49.5034 42.5131C49.5736 42.4323 49.6237 42.3314 49.6638 42.2304V42.19L49.6839 42.1698C49.7039 42.0689 49.6538 41.9679 49.5636 41.9679C49.4633 41.9174 49.3631 41.8367 49.333 41.7155L49.3029 41.655C49.2528 41.4732 49.2227 41.2915 49.2227 41.1098L49.2428 40.605V40.5747C49.2428 40.4031 49.1024 40.2718 48.942 40.2718H48.922C48.7215 40.2718 48.5611 40.2113 48.4207 40.0699L48.3405 39.969L48.14 39.7368L47.8794 39.4339C47.7791 39.2926 47.6789 39.1714 47.5486 39.0503C47.4483 38.9493 47.2979 38.8484 47.1476 38.8282L46.9471 38.7979C46.8468 38.7777 46.7165 38.7272 46.6062 38.6565C46.526 38.596 46.4057 38.6162 46.3255 38.6969L46.1952 38.8383L46.135 38.8786C46.0649 38.8988 45.9947 38.8584 45.9646 38.7777C45.9245 38.6565 45.9245 38.5152 45.9847 38.394V38.3335C45.9847 38.2628 45.9245 38.2123 45.8644 38.2325H45.704C45.5235 38.2325 45.3431 38.2123 45.1727 38.1316L45.0724 38.0912C44.9722 38.0407 44.8519 38.0104 44.7416 38.0104C44.6413 38.0104 44.5411 38.0306 44.4408 38.0912L44.4007 38.1215C44.2804 38.2022 44.1401 38.2426 43.9997 38.2527H43.6689C43.5185 38.2527 43.3682 38.3032 43.2679 38.384C43.1376 38.4647 42.9973 38.5152 42.8469 38.5455L42.5762 38.5859C42.4559 38.6162 42.3256 38.6666 42.2153 38.7575C42.1151 38.8584 41.9747 38.919 41.8444 38.9594L41.7943 38.9796C41.6339 39.0301 41.4935 39.131 41.3933 39.2825L41.273 39.4036C41.2028 39.5046 41.2028 39.6257 41.273 39.7267C41.3331 39.8276 41.4534 39.8579 41.5737 39.8276L41.7241 39.7671C41.8043 39.7368 41.8945 39.7671 41.9647 39.8074C42.0248 39.8579 42.1151 39.8882 42.2053 39.8781L42.4559 39.8478C42.5963 39.8478 42.7366 39.8478 42.877 39.8882C43.0273 39.9387 43.1577 39.9892 43.278 40.0901C43.3982 40.1911 43.5286 40.2315 43.6789 40.2517C43.8293 40.2718 43.9797 40.3021 44.12 40.3526L44.2203 40.3728C44.3205 40.4031 44.4007 40.4738 44.4609 40.5747C44.511 40.6555 44.5611 40.7766 44.5611 40.8776V40.9079C44.5611 41.029 44.6614 41.1098 44.7616 41.1098H44.8218C44.9822 41.1098 45.1526 41.13 45.323 41.1805L45.3932 41.2107C45.4935 41.2511 45.5937 41.3117 45.6639 41.4127C45.7441 41.5136 45.7942 41.6146 45.8243 41.7155L45.8544 41.8569C45.8844 42.0083 45.8944 42.1597 45.8944 42.3213V42.3718C45.8944 42.4727 45.9646 42.5737 46.0749 42.614C46.1751 42.6342 46.2954 42.6746 46.4057 42.7352L46.4558 42.7554C46.5862 42.8362 46.7165 42.9371 46.8167 43.0583L46.8669 43.1289C46.9972 43.2804 47.0674 43.4722 47.0674 43.664V43.7347C47.0674 43.8861 47.0373 44.0375 46.9872 44.1789C46.9471 44.3 46.9872 44.4414 47.1175 44.4818L47.1877 44.5322C47.338 44.5928 47.4684 44.7039 47.5686 44.8351C47.6689 44.9865 47.709 45.1582 47.709 45.3399V45.6428C47.6889 45.7437 47.6588 45.8245 47.6087 45.8952C47.5586 45.9658 47.5586 46.0668 47.6087 46.1374L47.6689 46.2384L47.6889 46.2283ZM41.273 41.0593H41.2529C41.2128 41.0593 41.1928 41.1098 41.2028 41.1603L41.2429 41.3622C41.283 41.5237 41.303 41.6852 41.3231 41.8468C41.3431 42.0083 41.4233 42.1496 41.5436 42.2506H41.5837C41.7341 42.3718 41.8243 42.5535 41.8344 42.7352V43.24C41.8143 43.3409 41.8344 43.4419 41.8945 43.5227L41.9446 43.5731C42.0449 43.6943 42.085 43.8356 42.095 43.977L42.1251 44.5322C42.1251 44.6635 42.0449 44.7745 41.9246 44.7947L41.8243 44.8149C41.7542 44.8149 41.7241 44.8957 41.7241 44.9663C41.7241 45.0471 41.7542 45.138 41.7842 45.2187V45.2389C41.8143 45.3399 41.8243 45.4408 41.8143 45.5418L41.7742 45.8144C41.7341 46.0163 41.674 46.198 41.5737 46.3797L41.5035 46.5009C41.4534 46.6019 41.3832 46.6624 41.303 46.7028C41.2028 46.7432 41.1326 46.824 41.1025 46.9249L41.0223 47.2884C40.9722 47.4903 40.882 47.6922 40.7617 47.8941H40.7416C40.6214 48.0556 40.471 48.197 40.2905 48.2979L40.1702 48.3787L39.8695 48.5301C39.7692 48.5705 39.7091 48.6614 39.689 48.7724L39.6389 49.1056C39.6088 49.3075 39.5387 49.4791 39.3983 49.6104L39.268 49.7618L39.1176 49.9132L38.9672 50.0748C38.8469 50.2161 38.6665 50.2767 38.466 50.2464L38.1051 50.1757L37.7743 50.1353H37.6841C37.644 50.1757 37.6339 50.2363 37.664 50.2969C37.7342 50.418 37.8445 50.4988 37.9648 50.4988L38.1853 50.5392C38.2855 50.5392 38.4058 50.5897 38.5061 50.6401C38.6063 50.7108 38.7066 50.7613 38.8269 50.7916H38.8469C38.9773 50.842 39.1176 50.8521 39.2479 50.842L39.3983 50.8219C39.5687 50.8017 39.7291 50.8219 39.8695 50.8824L39.9898 50.9228C40.0399 50.943 40.1201 50.9228 40.1702 50.8723C40.2304 50.8118 40.2905 50.7714 40.3707 50.7411L40.4509 50.7209C40.5813 50.6805 40.7116 50.6603 40.8519 50.6603H40.9321C41.0524 50.6603 41.1627 50.6805 41.2629 50.7411L41.303 50.7613C41.3732 50.7916 41.4534 50.7613 41.5035 50.7007C41.5336 50.63 41.6038 50.5594 41.674 50.4988L41.9246 50.3272L42.085 50.2262L42.1652 50.1757C42.2654 50.1051 42.4058 50.0748 42.5261 50.0748L42.887 50.0445C43.0273 50.0243 43.1476 49.9233 43.1877 49.782C43.2278 49.6306 43.288 49.4791 43.3882 49.3479C43.4885 49.2166 43.5887 49.1056 43.689 49.0046C43.8193 48.9037 43.9496 48.8532 44.09 48.8431H44.1702C44.3306 48.8128 44.4509 48.6614 44.4408 48.4998V48.4797V47.8234C44.4609 47.7225 44.501 47.5912 44.5611 47.4903L44.7616 47.1874L44.8418 47.0864C44.902 47.036 44.9421 46.9653 45.0123 46.8845L45.1125 46.7533C45.1727 46.6523 45.1727 46.5211 45.0925 46.4302C44.9922 46.3293 44.9421 46.1879 44.922 46.0466V46.0062C44.902 45.8447 44.902 45.673 44.9521 45.5014V45.4509C45.0022 45.3197 45.0724 45.1885 45.1526 45.0673C45.2328 44.9663 45.2228 44.825 45.1225 44.7442L44.9521 44.5928C44.8118 44.4717 44.7316 44.2899 44.7115 44.1082L44.6915 43.9063C44.6915 43.8457 44.6915 43.7751 44.6714 43.7044L44.6514 43.5529C44.6313 43.3813 44.5311 43.2501 44.3907 43.1491L44.3205 43.1289C44.2203 43.0684 44.12 42.9775 44.0398 42.8563C43.9596 42.7554 43.9195 42.614 43.8895 42.4727L43.8594 42.3011C43.8594 42.2405 43.8193 42.2001 43.7591 42.1698L43.5987 42.1194L43.278 42.0184C43.1777 41.9982 43.0775 41.9174 43.0073 41.8468H42.9872C42.9271 41.766 42.8268 41.766 42.7667 41.8266L42.6664 41.9275C42.6464 41.9578 42.6263 41.9679 42.5963 41.9578C42.5361 41.9578 42.496 41.9074 42.5161 41.8569C42.5361 41.6953 42.476 41.5338 42.3456 41.4329L42.2153 41.3319L41.9146 41.13C41.8344 41.0997 41.7141 41.13 41.674 41.2309L41.6339 41.2915C41.6339 41.3117 41.6038 41.3218 41.5938 41.3319C41.5537 41.3319 41.4935 41.3319 41.4935 41.2814L41.4634 41.2309C41.4334 41.1704 41.3632 41.13 41.303 41.1098L41.273 41.0593ZM40.07 42.0689L40.0199 42.0184C39.9697 41.978 39.9196 41.9881 39.8695 42.0386C39.7993 42.1597 39.7392 42.291 39.7091 42.4222V42.4424C39.679 42.5737 39.5587 42.6645 39.4384 42.6443H39.3382H39.3181C39.1778 42.6443 39.0675 42.7655 39.0675 42.9068C39.0675 43.0885 39.0073 43.2703 38.8971 43.4116L38.8369 43.4722C38.7367 43.6034 38.5863 43.6943 38.4359 43.7448L38.3557 43.765C38.2555 43.7952 38.1753 43.8659 38.1552 43.9871C38.1552 44.088 38.0951 44.189 38.0149 44.2697L37.9146 44.3505C37.7943 44.4818 37.6139 44.5524 37.4334 44.5726L36.9322 44.6231C36.7718 44.6231 36.6314 44.7241 36.5312 44.8755C36.4309 45.0269 36.2806 45.1279 36.1302 45.1481L35.9096 45.1683C35.7492 45.1885 35.5788 45.1885 35.4084 45.1481L35.3082 45.1279L35.0375 45.0572C34.9372 45.0269 34.857 45.0572 34.7969 45.1279L34.6966 45.2591C34.5663 45.4106 34.3758 45.4812 34.1954 45.461L33.5438 45.3803C33.4435 45.3803 33.3633 45.3298 33.2731 45.2793C33.1728 45.2187 33.1027 45.1481 33.0325 45.0774L32.7819 44.7745C32.7518 44.7543 32.7017 44.7442 32.6516 44.7543L32.5112 44.8149L31.9498 44.9563C31.8496 44.9865 31.7192 44.9563 31.619 44.8957C31.5187 44.8149 31.3984 44.7947 31.2781 44.7947H31.1478C31.0275 44.825 30.9473 44.9563 30.9874 45.0774L31.0275 45.2793C31.0576 45.3803 31.0476 45.5014 30.9974 45.6024C30.9473 45.7033 30.9573 45.8043 31.0275 45.9052L31.0877 45.986C31.1679 46.1072 31.2882 46.2081 31.3884 46.3091C31.4887 46.41 31.5889 46.511 31.6691 46.6422L31.8195 46.9148C31.8997 47.0562 32.02 47.1369 32.1804 47.1369C32.3308 47.1369 32.4811 47.1874 32.6014 47.2884L32.9022 47.571C32.9824 47.6417 33.1027 47.6518 33.1829 47.5912L33.233 47.571C33.2931 47.571 33.3332 47.6114 33.3332 47.672V47.7225C33.3332 47.8537 33.4335 47.9749 33.5638 48.0253L34.0149 48.1263C34.1753 48.1768 34.3357 48.2273 34.4861 48.3282H34.5663C34.6465 48.3282 34.7167 48.2575 34.7067 48.1667V47.8133C34.7067 47.7124 34.7468 47.6114 34.827 47.571L34.8771 47.5508C34.9272 47.571 34.9773 47.6114 34.9573 47.6518V47.8234C34.9573 47.9547 34.9974 48.0758 35.0876 48.1667C35.1879 48.2676 35.3182 48.2878 35.4285 48.2474C35.5488 48.197 35.669 48.1869 35.7994 48.197L36.1703 48.2172C36.3507 48.2374 36.5212 48.2172 36.6715 48.1465C36.852 48.0859 37.0024 48.0052 37.1427 47.8941L37.2029 47.8537L37.5036 47.5811C37.6039 47.4802 37.7342 47.4297 37.8545 47.4297H38.2555C38.456 47.4095 38.6364 47.2278 38.6565 47.0259L38.6966 46.824C38.6966 46.6927 38.7567 46.5716 38.8469 46.4706C38.9472 46.3696 39.0474 46.3091 39.1477 46.2687L39.268 46.2182C39.4384 46.1475 39.5687 45.9961 39.6289 45.8144L39.689 45.5721C39.7392 45.3702 39.8394 45.1683 39.9898 45.037L40.0098 45.0168C40.1301 44.9159 40.1502 44.714 40.07 44.5726L40.0399 44.5019C39.9697 44.401 39.9597 44.2496 40.0098 44.1183C40.06 43.977 40.1101 43.8558 40.1903 43.7347L40.2905 43.5933C40.3306 43.5126 40.3306 43.3914 40.2705 43.3207C40.2103 43.24 40.1702 43.139 40.1702 43.0381L40.1502 42.8967V42.5535C40.1702 42.4525 40.1502 42.3213 40.1201 42.2203L40.08 42.0992L40.07 42.0689ZM38.6364 41.3016V41.2713C38.6364 41.1704 38.5763 41.1098 38.4961 41.1098H38.2354C38.1352 41.13 38.0349 41.13 37.9547 41.1098H37.5036C37.273 41.1098 37.0525 41.0694 36.8319 41.0088L36.5913 40.9483L36.3908 40.8877L35.9397 40.7362C35.6991 40.6656 35.5187 40.504 35.4084 40.2819L35.3583 40.181C35.2881 40.0296 35.1377 39.9488 34.9874 39.9791C34.8169 39.9791 34.6465 39.9791 34.4861 39.8983L34.3658 39.8478C34.1352 39.7469 33.9648 39.545 33.9648 39.2724L33.9247 38.9998C33.8946 38.8584 33.8044 38.7272 33.6841 38.6767C33.5438 38.6162 33.4134 38.5354 33.2831 38.4445L33.233 38.4142C33.0826 38.2931 32.9523 38.1316 32.8821 37.9397L32.8621 37.8792C32.812 37.7176 32.8019 37.546 32.842 37.3744L32.8621 37.3138C32.9022 37.1826 32.9122 37.0513 32.9122 36.91C32.9122 36.7888 32.8621 36.6677 32.7719 36.5768L32.6315 36.4456C32.4711 36.3143 32.3709 36.1225 32.3608 35.9105C32.3408 35.6884 32.3408 35.4764 32.3809 35.2644V35.2341V35.2038C32.3809 35.0827 32.2806 35.0019 32.1804 35.0019H32.1503C32.02 35.0019 31.9097 35.0827 31.8496 35.2038C31.7994 35.3451 31.7192 35.4562 31.629 35.5673L31.5889 35.6177L31.3884 35.8196L31.2882 35.9206C31.1879 36.0216 31.1278 36.173 31.1077 36.3244C31.0877 36.4759 31.0476 36.6273 30.9874 36.7686L30.9674 36.8191C30.9172 36.9403 30.837 37.0513 30.7368 37.122C30.6365 37.2028 30.5664 37.3239 30.5664 37.4451L30.5463 37.9095C30.5463 38.1114 30.5163 38.3133 30.4461 38.5152L30.426 38.596C30.3759 38.7272 30.426 38.8685 30.5463 38.9291L30.9674 39.1108L31.0075 39.131C31.0375 39.131 31.0476 39.1512 31.0576 39.1815C31.0877 39.2219 31.0576 39.2825 31.0275 39.2825L30.9273 39.3329C30.8671 39.3531 30.827 39.4137 30.807 39.4844L30.7869 39.5853V39.6055L30.6867 40.1709C30.6666 40.2517 30.6666 40.3425 30.6666 40.4334C30.6666 40.5141 30.7167 40.5848 30.7869 40.6151L31.0075 40.7161C31.1077 40.7766 31.228 40.8473 31.3082 40.918L31.4085 40.9987C31.4385 41.0391 31.4887 41.0795 31.5288 41.0997L31.5689 41.1401C31.639 41.2007 31.6892 41.2814 31.7092 41.3723L31.8095 41.8266C31.8095 41.9477 31.9097 42.0487 32.01 42.079L32.1704 42.1295C32.1704 42.1295 32.2004 42.1295 32.2205 42.1496L32.421 42.2102C32.5814 42.2607 32.7217 42.3516 32.842 42.4727C32.9623 42.5737 33.0826 42.7049 33.1829 42.8463L33.223 42.8866C33.3032 42.9876 33.4235 43.0381 33.5438 43.0078C33.6641 42.9775 33.7944 42.9674 33.9247 42.9674H34.0751C34.1753 42.9674 34.3057 42.9977 34.4159 43.0684C34.5162 43.1289 34.6465 43.1693 34.7668 43.2198H34.7969C34.9172 43.2703 35.0475 43.2501 35.1478 43.1794C35.248 43.0986 35.3783 43.0583 35.5087 43.0583L35.9798 43.0885C36.0801 43.0885 36.1803 43.0684 36.2304 42.9876H36.2505L36.4209 42.8261L36.471 42.7756C36.5512 42.6746 36.6715 42.6342 36.7918 42.6241H37.243C37.3633 42.6241 37.4735 42.5232 37.5237 42.4222C37.5738 42.3213 37.674 42.2405 37.7943 42.2203L37.9948 42.1799C38.075 42.1799 38.1452 42.1093 38.1753 42.0184C38.2053 41.9174 38.2555 41.8367 38.3256 41.7761L38.486 41.6146C38.5863 41.5136 38.6364 41.4127 38.6565 41.2915L38.6364 41.3016Z" fill="#393E59"/>
<defs>
<filter id="filter0_d_411_760" x="0" y="0.0654297" width="82.0001" height="82" filterUnits="userSpaceOnUse" color-interpolation-filters="sRGB">
<feFlood flood-opacity="0" result="BackgroundImageFix"/>
<feColorMatrix in="SourceAlpha" type="matrix" values="0 0 0 0 0 0 0 0 0 0 0 0 0 0 0 0 0 0 127 0" result="hardAlpha"/>
<feOffset dx="1" dy="1"/>
<feGaussianBlur stdDeviation="11"/>
<feComposite in2="hardAlpha" operator="out"/>
<feColorMatrix type="matrix" values="0 0 0 0 0.0330556 0 0 0 0 0.0439167 0 0 0 0 0.141667 0 0 0 0.1 0"/>
<feBlend mode="normal" in2="BackgroundImageFix" result="effect1_dropShadow_411_760"/>
<feBlend mode="normal" in="SourceGraphic" in2="effect1_dropShadow_411_760" result="shape"/>
</filter>
</defs>
</svg>
