<svg width="40" height="40" viewBox="0 0 40 40" fill="none" xmlns="http://www.w3.org/2000/svg">
<rect width="40" height="40" rx="6" fill="#00BFB2"/>
<path d="M14.7601 14.84V29H11.6401V14.84H6.6001V12.248H19.8001V14.84H14.7601Z" fill="white"/>
<path d="M26.0427 29.288C24.6827 29.288 23.5067 29.08 22.5147 28.664C21.5227 28.232 20.7467 27.656 20.1867 26.936L21.9867 25.304C22.4987 25.864 23.0827 26.296 23.7387 26.6C24.4107 26.904 25.1867 27.056 26.0667 27.056C26.8347 27.056 27.4507 26.928 27.9147 26.672C28.3787 26.416 28.6107 26.024 28.6107 25.496C28.6107 25.048 28.4507 24.744 28.1307 24.584C27.8267 24.424 27.4187 24.304 26.9067 24.224L24.9147 23.912C24.4027 23.832 23.8987 23.72 23.4027 23.576C22.9227 23.416 22.4907 23.2 22.1067 22.928C21.7387 22.656 21.4427 22.312 21.2187 21.896C20.9947 21.464 20.8827 20.944 20.8827 20.336C20.8827 19.04 21.3627 18.048 22.3227 17.36C23.2987 16.672 24.6347 16.328 26.3307 16.328C27.5307 16.328 28.5467 16.496 29.3787 16.832C30.2267 17.168 30.9227 17.64 31.4667 18.248L29.8587 20.024C29.5067 19.64 29.0347 19.304 28.4427 19.016C27.8667 18.712 27.1307 18.56 26.2347 18.56C24.6667 18.56 23.8827 19.048 23.8827 20.024C23.8827 20.472 24.0427 20.784 24.3627 20.96C24.6827 21.12 25.0987 21.24 25.6107 21.32L27.5787 21.632C28.1067 21.712 28.6107 21.832 29.0907 21.992C29.5867 22.136 30.0187 22.344 30.3867 22.616C30.7707 22.888 31.0747 23.232 31.2987 23.648C31.5227 24.064 31.6347 24.576 31.6347 25.184C31.6347 26.464 31.1387 27.472 30.1467 28.208C29.1707 28.928 27.8027 29.288 26.0427 29.288Z" fill="white"/>
</svg>
