<svg width="82" height="83" viewBox="0 0 82 83" fill="none" xmlns="http://www.w3.org/2000/svg">
<g filter="url(#filter0_d_391_762)">
<circle cx="40" cy="40.7105" r="19" fill="white"/>
</g>
<path d="M48.317 31.3974C47.7553 30.8688 45.4817 29.184 40.4125 29.1614C40.4125 29.1614 34.4366 28.7955 31.5261 31.5238C29.9071 33.1771 29.3365 35.6028 29.2746 38.6066C29.2127 41.6105 29.1375 47.2388 34.4499 48.7656H34.4543L34.4499 51.0964C34.4499 51.0964 34.4145 52.0405 35.0249 52.2302C35.7592 52.4651 36.1927 51.7469 36.896 50.9745C37.2808 50.5499 37.8116 49.9265 38.2141 49.4522C41.8501 49.7639 44.6413 49.0502 44.9597 48.9463C45.694 48.7024 49.8475 48.1603 50.5199 42.532C51.2187 36.723 50.1837 33.0551 48.317 31.3974ZM48.9319 42.1074C48.3613 46.8052 44.9951 47.1033 44.3758 47.3066C44.1104 47.3924 41.6555 48.0158 38.5724 47.8125C38.5724 47.8125 36.2723 50.6447 35.5557 51.381C35.3213 51.6204 35.0647 51.5978 35.0692 51.1235C35.0692 50.8119 35.0869 47.2524 35.0869 47.2524C35.0824 47.2524 35.0824 47.2524 35.0869 47.2524C30.5839 45.9786 30.8493 41.1859 30.898 38.6789C30.9466 36.1719 31.4111 34.1166 32.7823 32.7344C35.2461 30.4533 40.3197 30.7921 40.3197 30.7921C44.6059 30.8101 46.6583 32.1291 47.136 32.5718C48.7151 33.954 49.5202 37.2606 48.9319 42.1074ZM42.7835 38.4576C42.8011 38.8461 42.2305 38.8732 42.2128 38.4847C42.1642 37.4909 41.7086 37.0076 40.7708 36.9534C40.3904 36.9308 40.4258 36.3481 40.8018 36.3707C42.0359 36.4384 42.7215 37.1612 42.7835 38.4576ZM43.6814 38.968C43.7256 37.0528 42.5534 35.5531 40.3285 35.386C39.9525 35.3589 39.9923 34.7761 40.3683 34.8032C42.9338 34.993 44.3007 36.7953 44.252 38.9816C44.2476 39.37 43.6725 39.352 43.6814 38.968ZM45.7604 39.5733C45.7648 39.9618 45.1897 39.9663 45.1897 39.5778C45.1632 35.8964 42.7613 33.8908 39.8464 33.8682C39.4704 33.8637 39.4704 33.2855 39.8464 33.2855C43.1064 33.3081 45.7294 35.6073 45.7604 39.5733ZM45.2605 44.0046V44.0136C44.7828 44.8719 43.8893 45.8205 42.9692 45.5178L42.9604 45.5043C42.0271 45.2378 39.8287 44.0814 38.4397 42.9521C37.7232 42.3739 37.0685 41.6918 36.5642 41.0368C36.1086 40.4541 35.6486 39.763 35.2019 38.9319C34.2597 37.1928 34.0518 36.4159 34.0518 36.4159C33.7554 35.4763 34.6799 34.5638 35.5248 34.076H35.5336C35.9406 33.8592 36.3298 33.9314 36.5908 34.2522C36.5908 34.2522 37.1393 34.9207 37.3737 35.2504C37.5949 35.5576 37.8912 36.05 38.0461 36.3255C38.3159 36.8179 38.1478 37.3193 37.8824 37.5271L37.3516 37.9607C37.0818 38.182 37.1172 38.5931 37.1172 38.5931C37.1172 38.5931 37.9045 41.6331 40.846 42.401C40.846 42.401 41.2486 42.4372 41.4653 42.1616L41.8899 41.6196C42.0934 41.3485 42.5844 41.1769 43.0665 41.4524C43.7168 41.8273 44.5439 42.41 45.0924 42.9385C45.4021 43.196 45.4728 43.589 45.2605 44.0046Z" fill="#393E59"/>
<defs>
<filter id="filter0_d_391_762" x="0" y="0.710449" width="82.0001" height="82" filterUnits="userSpaceOnUse" color-interpolation-filters="sRGB">
<feFlood flood-opacity="0" result="BackgroundImageFix"/>
<feColorMatrix in="SourceAlpha" type="matrix" values="0 0 0 0 0 0 0 0 0 0 0 0 0 0 0 0 0 0 127 0" result="hardAlpha"/>
<feOffset dx="1" dy="1"/>
<feGaussianBlur stdDeviation="11"/>
<feComposite in2="hardAlpha" operator="out"/>
<feColorMatrix type="matrix" values="0 0 0 0 0.0330556 0 0 0 0 0.0439167 0 0 0 0 0.141667 0 0 0 0.1 0"/>
<feBlend mode="normal" in2="BackgroundImageFix" result="effect1_dropShadow_391_762"/>
<feBlend mode="normal" in="SourceGraphic" in2="effect1_dropShadow_391_762" result="shape"/>
</filter>
</defs>
</svg>
