<svg width="82" height="82" viewBox="0 0 82 82" fill="none" xmlns="http://www.w3.org/2000/svg">
<g filter="url(#filter0_d_391_770)">
<circle cx="40" cy="40" r="19" fill="white"/>
</g>
<path d="M36.1712 46.394C36.1712 46.4863 36.0639 46.5601 35.9287 46.5601C35.7748 46.5739 35.6675 46.5001 35.6675 46.394C35.6675 46.3018 35.7748 46.228 35.91 46.228C36.0499 46.2142 36.1712 46.288 36.1712 46.394ZM34.7208 46.1865C34.6882 46.2787 34.7815 46.3848 34.9214 46.4125C35.0426 46.4586 35.1825 46.4125 35.2105 46.3202C35.2385 46.228 35.1499 46.1219 35.01 46.0804C34.8887 46.0481 34.7535 46.0942 34.7208 46.1865ZM36.7821 46.1081C36.6468 46.1404 36.5536 46.228 36.5675 46.3341C36.5815 46.4263 36.7028 46.4863 36.8427 46.454C36.9779 46.4217 37.0712 46.3341 37.0572 46.2418C37.0432 46.1542 36.9173 46.0942 36.7821 46.1081ZM39.8506 28.4346C33.3824 28.4346 28.4346 33.2911 28.4346 39.6881C28.4346 44.8029 31.6896 49.1797 36.339 50.7202C36.936 50.8262 37.1458 50.4619 37.1458 50.1621C37.1458 49.8762 37.1318 48.2988 37.1318 47.3303C37.1318 47.3303 33.8674 48.0221 33.1819 45.9559C33.1819 45.9559 32.6503 44.6138 31.8855 44.2679C31.8855 44.2679 30.8176 43.5438 31.9601 43.5576C31.9601 43.5576 33.1213 43.6498 33.7602 44.7475C34.7815 46.5278 36.4929 46.0158 37.1598 45.7114C37.2671 44.9735 37.5702 44.4616 37.9059 44.1572C35.2991 43.8712 32.6689 43.4976 32.6689 39.0608C32.6689 37.7925 33.0234 37.156 33.7695 36.3443C33.6483 36.0445 33.2519 34.8085 33.8908 33.2127C34.8654 32.9129 37.1085 34.458 37.1085 34.458C38.0412 34.1997 39.0438 34.0659 40.0371 34.0659C41.0304 34.0659 42.0331 34.1997 42.9657 34.458C42.9657 34.458 45.2088 32.9083 46.1835 33.2127C46.8224 34.8131 46.426 36.0445 46.3047 36.3443C47.0509 37.1606 47.5079 37.7971 47.5079 39.0608C47.5079 43.5115 44.7611 43.8666 42.1543 44.1572C42.5833 44.5215 42.9471 45.2133 42.9471 46.2972C42.9471 47.8515 42.9331 49.7747 42.9331 50.1529C42.9331 50.4527 43.1476 50.817 43.7399 50.7109C48.4033 49.1797 51.565 44.8029 51.565 39.6881C51.565 33.2911 46.3187 28.4346 39.8506 28.4346ZM32.9674 44.3417C32.9068 44.3878 32.9208 44.4939 33 44.5815C33.0747 44.6553 33.1819 44.6876 33.2425 44.6276C33.3032 44.5815 33.2892 44.4754 33.2099 44.3878C33.1353 44.314 33.028 44.2817 32.9674 44.3417ZM32.4638 43.9681C32.4311 44.028 32.4777 44.1018 32.571 44.1479C32.6456 44.1941 32.7389 44.1802 32.7715 44.1157C32.8042 44.0557 32.7575 43.9819 32.6643 43.9358C32.571 43.9081 32.4964 43.922 32.4638 43.9681ZM33.9747 45.61C33.9001 45.6699 33.9281 45.8083 34.0353 45.8959C34.1426 46.002 34.2778 46.0158 34.3384 45.942C34.3991 45.8821 34.3711 45.7437 34.2778 45.6561C34.1752 45.55 34.0353 45.5362 33.9747 45.61ZM33.4431 44.932C33.3685 44.9781 33.3685 45.098 33.4431 45.2041C33.5177 45.3102 33.6436 45.3563 33.7042 45.3102C33.7788 45.2502 33.7788 45.1303 33.7042 45.0242C33.6389 44.9182 33.5177 44.872 33.4431 44.932Z" fill="#393E59"/>
<defs>
<filter id="filter0_d_391_770" x="0" y="0" width="82.0001" height="82" filterUnits="userSpaceOnUse" color-interpolation-filters="sRGB">
<feFlood flood-opacity="0" result="BackgroundImageFix"/>
<feColorMatrix in="SourceAlpha" type="matrix" values="0 0 0 0 0 0 0 0 0 0 0 0 0 0 0 0 0 0 127 0" result="hardAlpha"/>
<feOffset dx="1" dy="1"/>
<feGaussianBlur stdDeviation="11"/>
<feComposite in2="hardAlpha" operator="out"/>
<feColorMatrix type="matrix" values="0 0 0 0 0.0330556 0 0 0 0 0.0439167 0 0 0 0 0.141667 0 0 0 0.1 0"/>
<feBlend mode="normal" in2="BackgroundImageFix" result="effect1_dropShadow_391_770"/>
<feBlend mode="normal" in="SourceGraphic" in2="effect1_dropShadow_391_770" result="shape"/>
</filter>
</defs>
</svg>
